<svg width="57" height="54" viewBox="0 0 57 54" fill="none" xmlns="http://www.w3.org/2000/svg">
<g clip-path="url(#clip0_2_584)">
<path d="M10.6246 0.363743H46.485C47.7766 0.36254 49.0557 0.613027 50.2492 1.10087C51.4427 1.58871 52.5272 2.30433 53.4405 3.20677C54.3538 4.1092 55.078 5.18075 55.5717 6.36007C56.0654 7.53939 56.3189 8.80335 56.3177 10.0796V44.1422C56.3189 45.4184 56.0654 46.6824 55.5717 47.8617C55.078 49.041 54.3538 50.1126 53.4405 51.015C52.5272 51.9174 51.4427 52.6331 50.2492 53.1209C49.0557 53.6087 47.7766 53.8592 46.485 53.858H10.6246C9.33306 53.8592 8.05391 53.6087 6.8604 53.1209C5.6669 52.6331 4.58247 51.9174 3.66918 51.015C2.75589 50.1126 2.03166 49.041 1.53795 47.8617C1.04425 46.6824 0.790749 45.4184 0.791966 44.1422V10.0796C0.790749 8.80335 1.04425 7.53939 1.53795 6.36007C2.03166 5.18075 2.75589 4.1092 3.66918 3.20677C4.58247 2.30433 5.6669 1.58871 6.8604 1.10087C8.05391 0.613027 9.33306 0.36254 10.6246 0.363743Z" fill="#470137"/>
<defs>
<clipPath id="clip0_2_584">
<rect width="55.5257" height="53.4943" fill="white" transform="translate(0.791992 0.36377)"/>
</clipPath>
</defs>
</svg>
